<!DOCTYPE svg PUBLIC "-//W3C//DTD SVG 1.1//EN" "http://www.w3.org/Graphics/SVG/1.1/DTD/svg11.dtd">
<!-- Uploaded to: SVG Repo, www.svgrepo.com, Transformed by: SVG Repo Mixer Tools -->
<svg fill="#5e5c64" height="800px" width="800px" version="1.1" id="Layer_1" xmlns="http://www.w3.org/2000/svg" xmlns:xlink="http://www.w3.org/1999/xlink" viewBox="0 0 512 512" xml:space="preserve">
<g id="SVGRepo_bgCarrier" stroke-width="0"/>
<g id="SVGRepo_tracerCarrier" stroke-linecap="round" stroke-linejoin="round"/>
<g id="SVGRepo_iconCarrier"> <g> <g> <path d="M505.752,475.582L72.837,42.667h225.83c11.782,0,21.333-9.551,21.333-21.333C320,9.551,310.449,0,298.667,0H21.333 c0,0-0.001,0-0.001,0c-0.702,0-1.405,0.037-2.104,0.106c-0.316,0.031-0.622,0.09-0.933,0.135c-0.377,0.054-0.755,0.098-1.13,0.172 c-0.358,0.071-0.705,0.169-1.056,0.258c-0.323,0.081-0.648,0.152-0.968,0.249c-0.345,0.104-0.678,0.234-1.015,0.355 c-0.319,0.115-0.641,0.22-0.956,0.35c-0.315,0.131-0.618,0.284-0.925,0.43c-0.323,0.152-0.65,0.296-0.967,0.466 c-0.295,0.158-0.575,0.338-0.862,0.509C10.106,3.215,9.791,3.39,9.488,3.593c-0.317,0.212-0.615,0.448-0.92,0.676 C8.316,4.458,8.057,4.633,7.812,4.835C6.725,5.727,5.727,6.725,4.835,7.812C4.633,8.057,4.458,8.316,4.269,8.569 c-0.228,0.305-0.464,0.603-0.676,0.92c-0.203,0.303-0.378,0.617-0.564,0.928c-0.171,0.286-0.351,0.567-0.509,0.862 c-0.17,0.317-0.313,0.643-0.466,0.967c-0.145,0.307-0.299,0.61-0.43,0.925c-0.13,0.315-0.235,0.636-0.35,0.956 c-0.121,0.337-0.25,0.67-0.355,1.015c-0.097,0.32-0.168,0.645-0.249,0.968c-0.089,0.351-0.187,0.698-0.258,1.056 c-0.074,0.375-0.118,0.753-0.172,1.13c-0.044,0.311-0.104,0.618-0.135,0.933C0.037,19.928,0,20.63,0,21.333v277.333 C0,310.449,9.551,320,21.333,320c11.782,0,21.333-9.551,21.333-21.333V72.837l432.915,432.915c8.331,8.331,21.839,8.331,30.17,0 C514.083,497.42,514.083,483.913,505.752,475.582z"/> </g> </g> </g>
</svg>